<svg width="144" height="23" viewBox="0 0 144 23" fill="none" xmlns="http://www.w3.org/2000/svg">
<path d="M18.036 5.436L14.526 18H11.556L9.198 9.054L6.732 18L3.78 18.018L0.396 5.436H3.096L5.31 15.192L7.866 5.436H10.674L13.086 15.138L15.318 5.436H18.036ZM28.9515 12.798C28.9515 13.158 28.9275 13.482 28.8795 13.77H21.5895C21.6495 14.49 21.9015 15.054 22.3455 15.462C22.7895 15.87 23.3355 16.074 23.9835 16.074C24.9195 16.074 25.5855 15.672 25.9815 14.868H28.6995C28.4115 15.828 27.8595 16.62 27.0435 17.244C26.2275 17.856 25.2255 18.162 24.0375 18.162C23.0775 18.162 22.2135 17.952 21.4455 17.532C20.6895 17.1 20.0955 16.494 19.6635 15.714C19.2435 14.934 19.0335 14.034 19.0335 13.014C19.0335 11.982 19.2435 11.076 19.6635 10.296C20.0835 9.516 20.6715 8.916 21.4275 8.496C22.1835 8.076 23.0535 7.866 24.0375 7.866C24.9855 7.866 25.8315 8.07 26.5755 8.478C27.3315 8.886 27.9135 9.468 28.3215 10.224C28.7415 10.968 28.9515 11.826 28.9515 12.798ZM26.3415 12.078C26.3295 11.43 26.0955 10.914 25.6395 10.53C25.1835 10.134 24.6255 9.936 23.9655 9.936C23.3415 9.936 22.8135 10.128 22.3815 10.512C21.9615 10.884 21.7035 11.406 21.6075 12.078H26.3415ZM33.3108 9.486C33.6348 9.006 34.0788 8.616 34.6428 8.316C35.2188 8.016 35.8728 7.866 36.6048 7.866C37.4568 7.866 38.2248 8.076 38.9088 8.496C39.6048 8.916 40.1508 9.516 40.5468 10.296C40.9548 11.064 41.1588 11.958 41.1588 12.978C41.1588 13.998 40.9548 14.904 40.5468 15.696C40.1508 16.476 39.6048 17.082 38.9088 17.514C38.2248 17.946 37.4568 18.162 36.6048 18.162C35.8608 18.162 35.2068 18.018 34.6428 17.73C34.0908 17.43 33.6468 17.046 33.3108 16.578V18H30.7908V4.68H33.3108V9.486ZM38.5848 12.978C38.5848 12.378 38.4588 11.862 38.2068 11.43C37.9668 10.986 37.6428 10.65 37.2348 10.422C36.8388 10.194 36.4068 10.08 35.9388 10.08C35.4828 10.08 35.0508 10.2 34.6428 10.44C34.2468 10.668 33.9228 11.004 33.6708 11.448C33.4308 11.892 33.3108 12.414 33.3108 13.014C33.3108 13.614 33.4308 14.136 33.6708 14.58C33.9228 15.024 34.2468 15.366 34.6428 15.606C35.0508 15.834 35.4828 15.948 35.9388 15.948C36.4068 15.948 36.8388 15.828 37.2348 15.588C37.6428 15.348 37.9668 15.006 38.2068 14.562C38.4588 14.118 38.5848 13.59 38.5848 12.978ZM49.74 0.954L44.88 21.258H42.414L47.274 0.954H49.74Z" fill="white"/>
<path d="M59.448 15.606H54.444L53.616 18H50.97L55.488 5.418H58.422L62.94 18H60.276L59.448 15.606ZM58.764 13.59L56.946 8.334L55.128 13.59H58.764ZM67.1487 9.468C67.4727 9.012 67.9167 8.634 68.4807 8.334C69.0567 8.022 69.7107 7.866 70.4427 7.866C71.2947 7.866 72.0627 8.076 72.7467 8.496C73.4427 8.916 73.9887 9.516 74.3847 10.296C74.7927 11.064 74.9967 11.958 74.9967 12.978C74.9967 13.998 74.7927 14.904 74.3847 15.696C73.9887 16.476 73.4427 17.082 72.7467 17.514C72.0627 17.946 71.2947 18.162 70.4427 18.162C69.7107 18.162 69.0627 18.012 68.4987 17.712C67.9467 17.412 67.4967 17.034 67.1487 16.578V22.752H64.6287V8.028H67.1487V9.468ZM72.4227 12.978C72.4227 12.378 72.2967 11.862 72.0447 11.43C71.8047 10.986 71.4807 10.65 71.0727 10.422C70.6767 10.194 70.2447 10.08 69.7767 10.08C69.3207 10.08 68.8887 10.2 68.4807 10.44C68.0847 10.668 67.7607 11.004 67.5087 11.448C67.2687 11.892 67.1487 12.414 67.1487 13.014C67.1487 13.614 67.2687 14.136 67.5087 14.58C67.7607 15.024 68.0847 15.366 68.4807 15.606C68.8887 15.834 69.3207 15.948 69.7767 15.948C70.2447 15.948 70.6767 15.828 71.0727 15.588C71.4807 15.348 71.8047 15.006 72.0447 14.562C72.2967 14.118 72.4227 13.59 72.4227 12.978ZM79.3479 9.468C79.6719 9.012 80.1159 8.634 80.6799 8.334C81.2559 8.022 81.9099 7.866 82.6419 7.866C83.4939 7.866 84.2619 8.076 84.9459 8.496C85.6419 8.916 86.1879 9.516 86.5839 10.296C86.9919 11.064 87.1959 11.958 87.1959 12.978C87.1959 13.998 86.9919 14.904 86.5839 15.696C86.1879 16.476 85.6419 17.082 84.9459 17.514C84.2619 17.946 83.4939 18.162 82.6419 18.162C81.9099 18.162 81.2619 18.012 80.6979 17.712C80.1459 17.412 79.6959 17.034 79.3479 16.578V22.752H76.8279V8.028H79.3479V9.468ZM84.6219 12.978C84.6219 12.378 84.4959 11.862 84.2439 11.43C84.0039 10.986 83.6799 10.65 83.2719 10.422C82.8759 10.194 82.4439 10.08 81.9759 10.08C81.5199 10.08 81.0879 10.2 80.6799 10.44C80.2839 10.668 79.9599 11.004 79.7079 11.448C79.4679 11.892 79.3479 12.414 79.3479 13.014C79.3479 13.614 79.4679 14.136 79.7079 14.58C79.9599 15.024 80.2839 15.366 80.6799 15.606C81.0879 15.834 81.5199 15.948 81.9759 15.948C82.4439 15.948 82.8759 15.828 83.2719 15.588C83.6799 15.348 84.0039 15.006 84.2439 14.562C84.4959 14.118 84.6219 13.59 84.6219 12.978ZM101.866 5.436V7.47H98.5182V18H95.9982V7.47H92.6502V5.436H101.866ZM112.975 12.798C112.975 13.158 112.951 13.482 112.903 13.77H105.613C105.673 14.49 105.925 15.054 106.369 15.462C106.813 15.87 107.359 16.074 108.007 16.074C108.943 16.074 109.609 15.672 110.005 14.868H112.723C112.435 15.828 111.883 16.62 111.067 17.244C110.251 17.856 109.249 18.162 108.061 18.162C107.101 18.162 106.237 17.952 105.469 17.532C104.713 17.1 104.119 16.494 103.687 15.714C103.267 14.934 103.057 14.034 103.057 13.014C103.057 11.982 103.267 11.076 103.687 10.296C104.107 9.516 104.695 8.916 105.451 8.496C106.207 8.076 107.077 7.866 108.061 7.866C109.009 7.866 109.855 8.07 110.599 8.478C111.355 8.886 111.937 9.468 112.345 10.224C112.765 10.968 112.975 11.826 112.975 12.798ZM110.365 12.078C110.353 11.43 110.119 10.914 109.663 10.53C109.207 10.134 108.649 9.936 107.989 9.936C107.365 9.936 106.837 10.128 106.405 10.512C105.985 10.884 105.727 11.406 105.631 12.078H110.365ZM114.166 12.978C114.166 11.97 114.364 11.076 114.76 10.296C115.168 9.516 115.714 8.916 116.398 8.496C117.094 8.076 117.868 7.866 118.72 7.866C119.464 7.866 120.112 8.016 120.664 8.316C121.228 8.616 121.678 8.994 122.014 9.45V8.028H124.552V18H122.014V16.542C121.69 17.01 121.24 17.4 120.664 17.712C120.1 18.012 119.446 18.162 118.702 18.162C117.862 18.162 117.094 17.946 116.398 17.514C115.714 17.082 115.168 16.476 114.76 15.696C114.364 14.904 114.166 13.998 114.166 12.978ZM122.014 13.014C122.014 12.402 121.894 11.88 121.654 11.448C121.414 11.004 121.09 10.668 120.682 10.44C120.274 10.2 119.836 10.08 119.368 10.08C118.9 10.08 118.468 10.194 118.072 10.422C117.676 10.65 117.352 10.986 117.1 11.43C116.86 11.862 116.74 12.378 116.74 12.978C116.74 13.578 116.86 14.106 117.1 14.562C117.352 15.006 117.676 15.348 118.072 15.588C118.48 15.828 118.912 15.948 119.368 15.948C119.836 15.948 120.274 15.834 120.682 15.606C121.09 15.366 121.414 15.03 121.654 14.598C121.894 14.154 122.014 13.626 122.014 13.014ZM139.397 7.884C140.621 7.884 141.605 8.262 142.349 9.018C143.105 9.762 143.483 10.806 143.483 12.15V18H140.963V12.492C140.963 11.712 140.765 11.118 140.369 10.71C139.973 10.29 139.433 10.08 138.749 10.08C138.065 10.08 137.519 10.29 137.111 10.71C136.715 11.118 136.517 11.712 136.517 12.492V18H133.997V12.492C133.997 11.712 133.799 11.118 133.403 10.71C133.007 10.29 132.467 10.08 131.783 10.08C131.087 10.08 130.535 10.29 130.127 10.71C129.731 11.118 129.533 11.712 129.533 12.492V18H127.013V8.028H129.533V9.234C129.857 8.814 130.271 8.484 130.775 8.244C131.291 8.004 131.855 7.884 132.467 7.884C133.247 7.884 133.943 8.052 134.555 8.388C135.167 8.712 135.641 9.18 135.977 9.792C136.301 9.216 136.769 8.754 137.381 8.406C138.005 8.058 138.677 7.884 139.397 7.884Z" fill="#5CE1E6"/>
</svg>
